<svg viewBox="0 0 1024 1024" xmlns="http://www.w3.org/2000/svg">
  <!-- 黑色部分（阳） -->
  <path d="M803.4816 515.84c-1.9968 159.2576-131.712 287.744-291.456 287.744S222.5664 675.0976 220.5696 515.84c-0.0256-1.2544-0.0512-2.5088-0.0512-3.7632 0-80.4864 65.2544-145.7664 145.7408-145.7664s145.7664 65.28 145.7664 145.7664 65.2544 145.7664 145.7664 145.7664 143.6928-63.2576 145.6896-142.0032z" fill="#1a1a1a"/>
  <!-- 白色小点 -->
  <path d="M366.2592 512.1024m-43.8016 0a43.8016 43.8016 0 1 0 87.6032 0 43.8016 43.8016 0 1 0-87.6032 0Z" fill="#f5f5f5"/>
  <!-- 白色部分（阴） -->
  <path d="M220.5184 508.16c1.9968-159.2576 131.712-287.744 291.456-287.744s289.4592 128.4864 291.456 287.744c0.0256 1.2544 0.0512 2.5088 0.0512 3.7632 0 80.4864-65.2544 145.7664-145.7408 145.7664s-145.7664-65.28-145.7664-145.7664-65.2544-145.7664-145.7664-145.7664-143.6928 63.2576-145.6896 142.0032z" fill="#f5f5f5"/>
  <!-- 黑色小点 -->
  <path d="M657.7408 511.8976m-43.8016 0a43.8016 43.8016 0 1 0 87.6032 0 43.8016 43.8016 0 1 0-87.6032 0Z" fill="#1a1a1a"/>
</svg>